#!OML:ASF X:\für Bonn\!DataBase\2005_08_12_Daniel\c3d\Daniel.ASF
:FULLY-SPECIFIED
:DEGREES
137
root 4.69061 16.7135 -0.756258 104.475 -101.196 -131.879
lowerback 30.2772 0.565862 -1.7435
upperback 12.2229 -1.62073 -7.40556
thorax -2.97067 -1.2507 -6.72558
lowerneck 17.0857 6.63818 -1.56056
upperneck 27.5464 5.55913 5.94276
head 5.58416 2.03536 2.08681
rclavicle 3.39922e-014 7.95139e-015
rhumerus -42.6754 -5.4839 -90.2589
rradius 24.5674
rwrist 29.3367
rhand -5.13106 13.4637
rfingers 7.12502
rthumb 20.6675 -15.4559
lclavicle 3.39922e-014 7.95139e-015
lhumerus -36.1957 10.7052 78.0143
lradius 85.9743
lwrist 9.89886
lhand -19.6026 -16.0765
lfingers 7.12502
lthumb 6.72347 13.7967
rfemur 4.35775 0.206774 16.2537
rtibia 45.5985
rfoot -22.286 -3.55634
rtoes -6.68403
lfemur -57.4186 2.64032 -28.7842
ltibia 108.493
lfoot 11.8665 2.62009
ltoes -18.2015
138
root 4.71096 16.6996 -0.763645 107.162 -101.135 -133.718
lowerback 29.4636 0.350305 -1.70565
upperback 12.0364 -1.78265 -7.2828
thorax -2.83201 -1.31112 -6.54393
lowerneck 17.3057 6.61248 -1.69804
upperneck 26.9515 5.59273 5.80991
head 5.35552 2.04245 2.04942
rclavicle 1.15295e-014 -3.33958e-014
rhumerus -43.3025 -6.45079 -89.2554
rradius 23.2845
rwrist 32.9228
rhand -4.46399 13.7083
rfingers 7.12502
rthumb 21.3083 -15.1403
lclavicle 1.15295e-014 -3.33958e-014
lhumerus -35.0157 9.29084 78.2079
lradius 87.4829
lwrist 9.75619
lhand -19.9061 -15.8869
lfingers 7.12502
lthumb 6.43042 13.9955
rfemur 3.09815 -0.118571 16.4323
rtibia 46.1175
rfoot -22.4993 -3.4801
rtoes -6.41891
lfemur -54.9192 1.98488 -28.3378
ltibia 108.273
lfoot 12.262 3.77627
ltoes -17.4884
139
root 4.7318 16.6853 -0.770051 109.866 -101.061 -135.598
lowerback 28.6402 0.124136 -1.66065
upperback 11.8707 -1.95856 -7.13902
thorax -2.66061 -1.37971 -6.34309
lowerneck 17.4937 6.60679 -1.88729
upperneck 26.3249 5.64846 5.68545
head 5.11959 2.05865 2.02346
rclavicle -2.5842e-014 -3.18055e-014
rhumerus -43.9207 -7.39471 -88.1433
rradius 22.125
rwrist 36.2971
rhand -4.0364 13.9061
rfingers 7.12502
rthumb 21.719 -14.8956
lclavicle -2.5842e-014 -3.18055e-014
lhumerus -33.7788 7.95825 78.311
lradius 88.9472
lwrist 9.64466
lhand -20.041 -15.8177
lfingers 7.12502
lthumb 6.30023 14.0686
rfemur 1.86267 -0.493718 16.6101
rtibia 46.6285
rfoot -22.686 -3.33074
rtoes -6.09386
lfemur -52.4234 1.30959 -27.8607
ltibia 107.892
lfoot 12.7447 4.80742
ltoes -16.9729
140
root 4.75286 16.6732 -0.774898 112.451 -100.993 -137.323
lowerback 27.7703 -0.0912954 -1.62495
upperback 11.6836 -2.12355 -6.99983
thorax -2.48448 -1.44279 -6.15024
lowerneck 17.6815 6.58926 -2.03211
upperneck 25.6987 5.69614 5.525
head 4.88901 2.07441 1.97911
rclavicle 2.48481e-014 -1.59028e-014
rhumerus -44.593 -8.45219 -86.892
rradius 21.0829
rwrist 39.5178
rhand -3.91426 14.0731
rfingers 7.12502
rthumb 21.8363 -14.7149
lclavicle 2.48481e-014 -1.59028e-014
lhumerus -32.5253 6.6521 78.3376
lradius 90.3662
lwrist 9.60594
lhand -20.0186 -15.9202
lfingers 7.12502
lthumb 6.3219 13.9654
rfemur 0.606386 -0.922796 16.7409
rtibia 47.0937
rfoot -22.8312 -3.08518
rtoes -5.85855
lfemur -49.9905 0.637339 -27.3967
ltibia 107.345
lfoot 13.2593 5.71853
ltoes -16.2908
141
root 4.77082 16.6626 -0.779295 114.951 -100.923 -139.061
lowerback 26.9269 -0.298669 -1.58604
upperback 11.5422 -2.28505 -6.84843
thorax -2.26267 -1.50668 -5.95276
lowerneck 17.8751 6.57114 -2.17149
upperneck 25.0106 5.75015 5.3474
head 4.63989 2.09592 1.92742
rclavicle -1.27222e-014 -7.95139e-015
rhumerus -45.2558 -9.50765 -85.5535
rradius 20.1521
rwrist 42.3581
rhand -4.02626 14.2246
rfingers 7.12502
rthumb 21.7287 -14.5759
lclavicle -1.27222e-014 -7.95139e-015
lhumerus -31.1856 5.37953 78.2925
lradius 91.7185
lwrist 9.64176
lhand -19.9046 -16.099
lfingers 7.12502
lthumb 6.43189 13.7833
rfemur -0.486891 -1.35392 16.8771
rtibia 47.4876
rfoot -22.9632 -2.79203
rtoes -5.49897
lfemur -47.4416 -0.00990882 -26.9181
ltibia 106.642
lfoot 13.7805 6.44192
ltoes -15.2272
142
root 4.78763 16.6562 -0.782409 117.444 -100.854 -140.81
lowerback 26.0875 -0.51015 -1.53885
upperback 11.396 -2.45421 -6.69758
thorax -2.04354 -1.5747 -5.76387
lowerneck 17.9849 6.55887 -2.32114
upperneck 24.3863 5.80187 5.19638
head 4.42296 2.11804 1.88928
rclavicle 3.16068e-014 1.43125e-014
rhumerus -45.9423 -10.5937 -84.1429
rradius 19.3484
rwrist 44.8313
rhand -4.22249 14.2916
rfingers 7.12502
rthumb 21.5403 -14.5306
lclavicle 3.16068e-014 1.43125e-014
lhumerus -29.8665 4.16308 78.1568
lradius 93.0922
lwrist 9.79752
lhand -19.569 -16.4037
lfingers 7.12502
lthumb 6.75586 13.4685
rfemur -1.51336 -1.82673 17.0082
rtibia 47.7943
rfoot -23.0495 -2.46711
rtoes -5.16133
lfemur -44.8787 -0.664873 -26.4446
ltibia 105.774
lfoot 14.0879 6.98607
ltoes -14.6456
143
root 4.80414 16.6524 -0.785072 119.976 -100.75 -142.611
lowerback 25.2619 -0.729993 -1.46413
upperback 11.2417 -2.63128 -6.52752
thorax -1.8356 -1.64649 -5.57259
lowerneck 18.0779 6.56041 -2.47621
upperneck 23.7631 5.87137 5.02863
head 4.20999 2.14921 1.84693
rclavicle -7.15625e-015 -1.90833e-014
rhumerus -46.6348 -11.6645 -82.661
rradius 18.6445
rwrist 46.8639
rhand -4.49956 14.2985
rfingers 7.12502
rthumb 21.2742 -14.5539
lclavicle -7.15625e-015 -1.90833e-014
lhumerus -28.5458 2.99934 77.948
lradius 94.4481
lwrist 10.0411
lhand -19.2005 -16.6992
lfingers 7.12502
lthumb 7.11161 13.1613
rfemur -2.47877 -2.27335 17.1876
rtibia 48.0164
rfoot -23.0981 -2.10501
rtoes -4.77387
lfemur -42.3197 -1.27298 -25.9252
ltibia 104.764
lfoot 14.3272 7.42135
ltoes -13.7976
